<?xml version="1.0" encoding="UTF-8" standalone="no"?><svg xmlns="http://www.w3.org/2000/svg" xmlns:xlink="http://www.w3.org/1999/xlink" contentScriptType="application/ecmascript" contentStyleType="text/css" height="652px" preserveAspectRatio="none" style="width:1377px;height:652px;" version="1.1" viewBox="0 0 1377 652" width="1377px" zoomAndPan="magnify"><defs><filter height="300%" id="fz97jc68a26r1" width="300%" x="-1" y="-1"><feGaussianBlur result="blurOut" stdDeviation="2.0"/><feColorMatrix in="blurOut" result="blurOut2" type="matrix" values="0 0 0 0 0 0 0 0 0 0 0 0 0 0 0 0 0 0 .4 0"/><feOffset dx="4.0" dy="4.0" in="blurOut2" result="blurOut3"/><feBlend in="SourceGraphic" in2="blurOut3" mode="normal"/></filter></defs><g><!--cluster flutter_simple_treeview::src::tree_view.dart--><polygon fill="#FFFFFF" filter="url(#fz97jc68a26r1)" points="438,270,791,270,798,292.2969,865,292.2969,865,417,438,417,438,270" style="stroke: #000000; stroke-width: 1.5;"/><line style="stroke: #000000; stroke-width: 1.5;" x1="438" x2="798" y1="292.2969" y2="292.2969"/><text fill="#000000" font-family="sans-serif" font-size="14" font-weight="bold" lengthAdjust="spacingAndGlyphs" textLength="347" x="442" y="284.9951">flutter_simple_treeview::src::tree_view.dart</text><!--cluster flutter_simple_treeview::src::primitives::tree_controller.dart--><polygon fill="#FFFFFF" filter="url(#fz97jc68a26r1)" points="299,442,781,442,788,464.2969,791,464.2969,791,640,299,640,299,442" style="stroke: #000000; stroke-width: 1.5;"/><line style="stroke: #000000; stroke-width: 1.5;" x1="299" x2="788" y1="464.2969" y2="464.2969"/><text fill="#000000" font-family="sans-serif" font-size="14" font-weight="bold" lengthAdjust="spacingAndGlyphs" textLength="476" x="303" y="456.9951">flutter_simple_treeview::src::primitives::tree_controller.dart</text><!--cluster flutter::src::widgets::framework.dart--><polygon fill="#FFFFFF" filter="url(#fz97jc68a26r1)" points="316,162,618,162,625,184.2969,667,184.2969,667,245,316,245,316,162" style="stroke: #000000; stroke-width: 1.5;"/><line style="stroke: #000000; stroke-width: 1.5;" x1="316" x2="625" y1="184.2969" y2="184.2969"/><text fill="#000000" font-family="sans-serif" font-size="14" font-weight="bold" lengthAdjust="spacingAndGlyphs" textLength="296" x="320" y="176.9951">flutter::src::widgets::framework.dart</text><!--cluster flutter_simple_treeview::src::node_widget.dart--><polygon fill="#FFFFFF" filter="url(#fz97jc68a26r1)" points="14,270,391,270,398,292.2969,419,292.2969,419,417,14,417,14,270" style="stroke: #000000; stroke-width: 1.5;"/><line style="stroke: #000000; stroke-width: 1.5;" x1="14" x2="398" y1="292.2969" y2="292.2969"/><text fill="#000000" font-family="sans-serif" font-size="14" font-weight="bold" lengthAdjust="spacingAndGlyphs" textLength="371" x="18" y="284.9951">flutter_simple_treeview::src::node_widget.dart</text><!--cluster flutter_simple_treeview::src::primitives::tree_node.dart--><polygon fill="#FFFFFF" filter="url(#fz97jc68a26r1)" points="213,16,658,16,665,38.2969,668,38.2969,668,137,213,137,213,16" style="stroke: #000000; stroke-width: 1.5;"/><line style="stroke: #000000; stroke-width: 1.5;" x1="213" x2="665" y1="38.2969" y2="38.2969"/><text fill="#000000" font-family="sans-serif" font-size="14" font-weight="bold" lengthAdjust="spacingAndGlyphs" textLength="439" x="217" y="30.9951">flutter_simple_treeview::src::primitives::tree_node.dart</text><!--cluster flutter::src::foundation::key.dart--><polygon fill="#FFFFFF" filter="url(#fz97jc68a26r1)" points="680,162,946,162,953,184.2969,956,184.2969,956,245,680,245,680,162" style="stroke: #000000; stroke-width: 1.5;"/><line style="stroke: #000000; stroke-width: 1.5;" x1="680" x2="953" y1="184.2969" y2="184.2969"/><text fill="#000000" font-family="sans-serif" font-size="14" font-weight="bold" lengthAdjust="spacingAndGlyphs" textLength="260" x="684" y="176.9951">flutter::src::foundation::key.dart</text><!--cluster flutter_simple_treeview::src::primitives::key_provider.dart--><polygon fill="#FFFFFF" filter="url(#fz97jc68a26r1)" points="878,283,1345,283,1352,305.2969,1355,305.2969,1355,404,878,404,878,283" style="stroke: #000000; stroke-width: 1.5;"/><line style="stroke: #000000; stroke-width: 1.5;" x1="878" x2="1352" y1="305.2969" y2="305.2969"/><text fill="#000000" font-family="sans-serif" font-size="14" font-weight="bold" lengthAdjust="spacingAndGlyphs" textLength="461" x="882" y="297.9951">flutter_simple_treeview::src::primitives::key_provider.dart</text><!--class flutter_simple_treeview::src::tree_view.dart::TreeView--><rect fill="#FEFECE" filter="url(#fz97jc68a26r1)" height="112.0234" id="flutter_simple_treeview::src::tree_view.dart::TreeView" style="stroke: #A80036; stroke-width: 1.5;" width="197" x="446.5" y="297"/><ellipse cx="512.75" cy="313" fill="#ADD1B2" rx="11" ry="11" style="stroke: #A80036; stroke-width: 1.0;"/><path d="M515.7188,318.6406 Q515.1406,318.9375 514.5,319.0859 Q513.8594,319.2344 513.1563,319.2344 Q510.6563,319.2344 509.3359,317.5859 Q508.0156,315.9375 508.0156,312.8125 Q508.0156,309.6875 509.3359,308.0313 Q510.6563,306.375 513.1563,306.375 Q513.8594,306.375 514.5078,306.5313 Q515.1563,306.6875 515.7188,306.9844 L515.7188,309.7031 Q515.0938,309.125 514.5,308.8516 Q513.9063,308.5781 513.2813,308.5781 Q511.9375,308.5781 511.25,309.6484 Q510.5625,310.7188 510.5625,312.8125 Q510.5625,314.9063 511.25,315.9766 Q511.9375,317.0469 513.2813,317.0469 Q513.9063,317.0469 514.5,316.7734 Q515.0938,316.5 515.7188,315.9219 L515.7188,318.6406 Z "/><text fill="#000000" font-family="sans-serif" font-size="12" lengthAdjust="spacingAndGlyphs" textLength="56" x="533.25" y="317.1543">TreeView</text><line style="stroke: #A80036; stroke-width: 1.5;" x1="447.5" x2="642.5" y1="329" y2="329"/><ellipse cx="457.5" cy="340.9023" fill="none" rx="3" ry="3" style="stroke: #038048; stroke-width: 1.0;"/><text fill="#000000" font-family="sans-serif" font-size="11" lengthAdjust="spacingAndGlyphs" textLength="132" x="466.5" y="343.2104">List&lt;TreeNode&gt; nodes</text><ellipse cx="457.5" cy="353.707" fill="none" rx="3" ry="3" style="stroke: #038048; stroke-width: 1.0;"/><text fill="#000000" font-family="sans-serif" font-size="11" lengthAdjust="spacingAndGlyphs" textLength="83" x="466.5" y="356.0151">double? indent</text><ellipse cx="457.5" cy="366.5117" fill="none" rx="3" ry="3" style="stroke: #038048; stroke-width: 1.0;"/><text fill="#000000" font-family="sans-serif" font-size="11" lengthAdjust="spacingAndGlyphs" textLength="94" x="466.5" y="368.8198">double? iconSize</text><ellipse cx="457.5" cy="379.3164" fill="none" rx="3" ry="3" style="stroke: #038048; stroke-width: 1.0;"/><text fill="#000000" font-family="sans-serif" font-size="11" lengthAdjust="spacingAndGlyphs" textLength="171" x="466.5" y="381.6245">TreeController? treeController</text><line style="stroke: #A80036; stroke-width: 1.5;" x1="447.5" x2="642.5" y1="388.2188" y2="388.2188"/><ellipse cx="457.5" cy="400.1211" fill="#84BE84" rx="3" ry="3" style="stroke: #038048; stroke-width: 1.0;"/><text fill="#000000" font-family="sans-serif" font-size="11" lengthAdjust="spacingAndGlyphs" textLength="166" x="466.5" y="402.4292">_TreeViewState createState()</text><!--class flutter_simple_treeview::src::tree_view.dart::_TreeViewState--><rect fill="#FEFECE" filter="url(#fz97jc68a26r1)" height="86.4141" id="flutter_simple_treeview::src::tree_view.dart::_TreeViewState" style="stroke: #A80036; stroke-width: 1.5;" width="178" x="679" y="310"/><ellipse cx="716.5" cy="326" fill="#ADD1B2" rx="11" ry="11" style="stroke: #A80036; stroke-width: 1.0;"/><path d="M719.4688,331.6406 Q718.8906,331.9375 718.25,332.0859 Q717.6094,332.2344 716.9063,332.2344 Q714.4063,332.2344 713.0859,330.5859 Q711.7656,328.9375 711.7656,325.8125 Q711.7656,322.6875 713.0859,321.0313 Q714.4063,319.375 716.9063,319.375 Q717.6094,319.375 718.2578,319.5313 Q718.9063,319.6875 719.4688,319.9844 L719.4688,322.7031 Q718.8438,322.125 718.25,321.8516 Q717.6563,321.5781 717.0313,321.5781 Q715.6875,321.5781 715,322.6484 Q714.3125,323.7188 714.3125,325.8125 Q714.3125,327.9063 715,328.9766 Q715.6875,330.0469 717.0313,330.0469 Q717.6563,330.0469 718.25,329.7734 Q718.8438,329.5 719.4688,328.9219 L719.4688,331.6406 Z "/><text fill="#000000" font-family="sans-serif" font-size="12" lengthAdjust="spacingAndGlyphs" textLength="96" x="735.5" y="330.1543">_TreeViewState</text><line style="stroke: #A80036; stroke-width: 1.5;" x1="680" x2="856" y1="342" y2="342"/><rect fill="none" height="6" style="stroke: #C82930; stroke-width: 1.0;" width="6" x="687" y="350.9023"/><text fill="#000000" font-family="sans-serif" font-size="11" lengthAdjust="spacingAndGlyphs" textLength="152" x="699" y="356.2104">TreeController? _controller</text><line style="stroke: #A80036; stroke-width: 1.5;" x1="680" x2="856" y1="362.8047" y2="362.8047"/><ellipse cx="690" cy="374.707" fill="#84BE84" rx="3" ry="3" style="stroke: #038048; stroke-width: 1.0;"/><text fill="#000000" font-family="sans-serif" font-size="11" lengthAdjust="spacingAndGlyphs" textLength="82" x="699" y="377.0151">void initState()</text><ellipse cx="690" cy="387.5117" fill="#84BE84" rx="3" ry="3" style="stroke: #038048; stroke-width: 1.0;"/><text fill="#000000" font-family="sans-serif" font-size="11" lengthAdjust="spacingAndGlyphs" textLength="76" x="699" y="389.8198">Widget build()</text><!--class flutter_simple_treeview::src::primitives::tree_controller.dart::TreeController--><rect fill="#FEFECE" filter="url(#fz97jc68a26r1)" height="163.2422" id="flutter_simple_treeview::src::primitives::tree_controller.dart::TreeController" style="stroke: #A80036; stroke-width: 1.5;" width="184" x="453" y="469"/><ellipse cx="496.35" cy="485" fill="#ADD1B2" rx="11" ry="11" style="stroke: #A80036; stroke-width: 1.0;"/><path d="M499.3188,490.6406 Q498.7406,490.9375 498.1,491.0859 Q497.4594,491.2344 496.7563,491.2344 Q494.2563,491.2344 492.9359,489.5859 Q491.6156,487.9375 491.6156,484.8125 Q491.6156,481.6875 492.9359,480.0313 Q494.2563,478.375 496.7563,478.375 Q497.4594,478.375 498.1078,478.5313 Q498.7563,478.6875 499.3188,478.9844 L499.3188,481.7031 Q498.6938,481.125 498.1,480.8516 Q497.5063,480.5781 496.8813,480.5781 Q495.5375,480.5781 494.85,481.6484 Q494.1625,482.7188 494.1625,484.8125 Q494.1625,486.9063 494.85,487.9766 Q495.5375,489.0469 496.8813,489.0469 Q497.5063,489.0469 498.1,488.7734 Q498.6938,488.5 499.3188,487.9219 L499.3188,490.6406 Z "/><text fill="#000000" font-family="sans-serif" font-size="12" lengthAdjust="spacingAndGlyphs" textLength="89" x="516.65" y="489.1543">TreeController</text><line style="stroke: #A80036; stroke-width: 1.5;" x1="454" x2="636" y1="501" y2="501"/><rect fill="none" height="6" style="stroke: #C82930; stroke-width: 1.0;" width="6" x="461" y="509.9023"/><text fill="#000000" font-family="sans-serif" font-size="11" lengthAdjust="spacingAndGlyphs" textLength="138" x="473" y="515.2104">bool _allNodesExpanded</text><rect fill="none" height="6" style="stroke: #C82930; stroke-width: 1.0;" width="6" x="461" y="522.707"/><text fill="#000000" font-family="sans-serif" font-size="11" lengthAdjust="spacingAndGlyphs" textLength="158" x="473" y="528.0151">Map&lt;Key, bool&gt; _expanded</text><ellipse cx="464" cy="538.5117" fill="none" rx="3" ry="3" style="stroke: #038048; stroke-width: 1.0;"/><text fill="#000000" font-family="sans-serif" font-size="11" lengthAdjust="spacingAndGlyphs" textLength="132" x="473" y="540.8198">bool allNodesExpanded</text><line style="stroke: #A80036; stroke-width: 1.5;" x1="454" x2="636" y1="547.4141" y2="547.4141"/><ellipse cx="464" cy="559.3164" fill="#84BE84" rx="3" ry="3" style="stroke: #038048; stroke-width: 1.0;"/><text fill="#000000" font-family="sans-serif" font-size="11" lengthAdjust="spacingAndGlyphs" textLength="130" x="473" y="561.6245">bool isNodeExpanded()</text><ellipse cx="464" cy="572.1211" fill="#84BE84" rx="3" ry="3" style="stroke: #038048; stroke-width: 1.0;"/><text fill="#000000" font-family="sans-serif" font-size="11" lengthAdjust="spacingAndGlyphs" textLength="154" x="473" y="574.4292">void toggleNodeExpanded()</text><ellipse cx="464" cy="584.9258" fill="#84BE84" rx="3" ry="3" style="stroke: #038048; stroke-width: 1.0;"/><text fill="#000000" font-family="sans-serif" font-size="11" lengthAdjust="spacingAndGlyphs" textLength="89" x="473" y="587.2339">void expandAll()</text><ellipse cx="464" cy="597.7305" fill="#84BE84" rx="3" ry="3" style="stroke: #038048; stroke-width: 1.0;"/><text fill="#000000" font-family="sans-serif" font-size="11" lengthAdjust="spacingAndGlyphs" textLength="95" x="473" y="600.0386">void collapseAll()</text><ellipse cx="464" cy="610.5352" fill="#84BE84" rx="3" ry="3" style="stroke: #038048; stroke-width: 1.0;"/><text fill="#000000" font-family="sans-serif" font-size="11" lengthAdjust="spacingAndGlyphs" textLength="105" x="473" y="612.8433">void expandNode()</text><ellipse cx="464" cy="623.3398" fill="#84BE84" rx="3" ry="3" style="stroke: #038048; stroke-width: 1.0;"/><text fill="#000000" font-family="sans-serif" font-size="11" lengthAdjust="spacingAndGlyphs" textLength="111" x="473" y="625.6479">void collapseNode()</text><!--class flutter::src::widgets::framework.dart::StatefulWidget--><rect fill="#FEFECE" filter="url(#fz97jc68a26r1)" height="48" id="flutter::src::widgets::framework.dart::StatefulWidget" style="stroke: #A80036; stroke-width: 1.5;" width="124" x="434" y="189"/><ellipse cx="449" cy="205" fill="#ADD1B2" rx="11" ry="11" style="stroke: #A80036; stroke-width: 1.0;"/><path d="M451.9688,210.6406 Q451.3906,210.9375 450.75,211.0859 Q450.1094,211.2344 449.4063,211.2344 Q446.9063,211.2344 445.5859,209.5859 Q444.2656,207.9375 444.2656,204.8125 Q444.2656,201.6875 445.5859,200.0313 Q446.9063,198.375 449.4063,198.375 Q450.1094,198.375 450.7578,198.5313 Q451.4063,198.6875 451.9688,198.9844 L451.9688,201.7031 Q451.3438,201.125 450.75,200.8516 Q450.1563,200.5781 449.5313,200.5781 Q448.1875,200.5781 447.5,201.6484 Q446.8125,202.7188 446.8125,204.8125 Q446.8125,206.9063 447.5,207.9766 Q448.1875,209.0469 449.5313,209.0469 Q450.1563,209.0469 450.75,208.7734 Q451.3438,208.5 451.9688,207.9219 L451.9688,210.6406 Z "/><text fill="#000000" font-family="sans-serif" font-size="12" lengthAdjust="spacingAndGlyphs" textLength="92" x="463" y="209.1543">StatefulWidget</text><line style="stroke: #A80036; stroke-width: 1.5;" x1="435" x2="557" y1="221" y2="221"/><line style="stroke: #A80036; stroke-width: 1.5;" x1="435" x2="557" y1="229" y2="229"/><!--class flutter::src::widgets::framework.dart::State--><rect fill="#FEFECE" filter="url(#fz97jc68a26r1)" height="48" id="flutter::src::widgets::framework.dart::State" style="stroke: #A80036; stroke-width: 1.5;" width="66" x="593" y="189"/><ellipse cx="608" cy="205" fill="#ADD1B2" rx="11" ry="11" style="stroke: #A80036; stroke-width: 1.0;"/><path d="M610.9688,210.6406 Q610.3906,210.9375 609.75,211.0859 Q609.1094,211.2344 608.4063,211.2344 Q605.9063,211.2344 604.5859,209.5859 Q603.2656,207.9375 603.2656,204.8125 Q603.2656,201.6875 604.5859,200.0313 Q605.9063,198.375 608.4063,198.375 Q609.1094,198.375 609.7578,198.5313 Q610.4063,198.6875 610.9688,198.9844 L610.9688,201.7031 Q610.3438,201.125 609.75,200.8516 Q609.1563,200.5781 608.5313,200.5781 Q607.1875,200.5781 606.5,201.6484 Q605.8125,202.7188 605.8125,204.8125 Q605.8125,206.9063 606.5,207.9766 Q607.1875,209.0469 608.5313,209.0469 Q609.1563,209.0469 609.75,208.7734 Q610.3438,208.5 610.9688,207.9219 L610.9688,210.6406 Z "/><text fill="#000000" font-family="sans-serif" font-size="12" lengthAdjust="spacingAndGlyphs" textLength="34" x="622" y="209.1543">State</text><line style="stroke: #A80036; stroke-width: 1.5;" x1="594" x2="658" y1="221" y2="221"/><line style="stroke: #A80036; stroke-width: 1.5;" x1="594" x2="658" y1="229" y2="229"/><!--class flutter::src::widgets::framework.dart::Widget--><rect fill="#FEFECE" filter="url(#fz97jc68a26r1)" height="48" id="flutter::src::widgets::framework.dart::Widget" style="stroke: #A80036; stroke-width: 1.5;" width="75" x="323.5" y="189"/><ellipse cx="338.5" cy="205" fill="#ADD1B2" rx="11" ry="11" style="stroke: #A80036; stroke-width: 1.0;"/><path d="M341.4688,210.6406 Q340.8906,210.9375 340.25,211.0859 Q339.6094,211.2344 338.9063,211.2344 Q336.4063,211.2344 335.0859,209.5859 Q333.7656,207.9375 333.7656,204.8125 Q333.7656,201.6875 335.0859,200.0313 Q336.4063,198.375 338.9063,198.375 Q339.6094,198.375 340.2578,198.5313 Q340.9063,198.6875 341.4688,198.9844 L341.4688,201.7031 Q340.8438,201.125 340.25,200.8516 Q339.6563,200.5781 339.0313,200.5781 Q337.6875,200.5781 337,201.6484 Q336.3125,202.7188 336.3125,204.8125 Q336.3125,206.9063 337,207.9766 Q337.6875,209.0469 339.0313,209.0469 Q339.6563,209.0469 340.25,208.7734 Q340.8438,208.5 341.4688,207.9219 L341.4688,210.6406 Z "/><text fill="#000000" font-family="sans-serif" font-size="12" lengthAdjust="spacingAndGlyphs" textLength="43" x="352.5" y="209.1543">Widget</text><line style="stroke: #A80036; stroke-width: 1.5;" x1="324.5" x2="397.5" y1="221" y2="221"/><line style="stroke: #A80036; stroke-width: 1.5;" x1="324.5" x2="397.5" y1="229" y2="229"/><!--class flutter_simple_treeview::src::node_widget.dart::NodeWidget--><rect fill="#FEFECE" filter="url(#fz97jc68a26r1)" height="112.0234" id="flutter_simple_treeview::src::node_widget.dart::NodeWidget" style="stroke: #A80036; stroke-width: 1.5;" width="206" x="22" y="297"/><ellipse cx="82.75" cy="313" fill="#ADD1B2" rx="11" ry="11" style="stroke: #A80036; stroke-width: 1.0;"/><path d="M85.7188,318.6406 Q85.1406,318.9375 84.5,319.0859 Q83.8594,319.2344 83.1563,319.2344 Q80.6563,319.2344 79.3359,317.5859 Q78.0156,315.9375 78.0156,312.8125 Q78.0156,309.6875 79.3359,308.0313 Q80.6563,306.375 83.1563,306.375 Q83.8594,306.375 84.5078,306.5313 Q85.1563,306.6875 85.7188,306.9844 L85.7188,309.7031 Q85.0938,309.125 84.5,308.8516 Q83.9063,308.5781 83.2813,308.5781 Q81.9375,308.5781 81.25,309.6484 Q80.5625,310.7188 80.5625,312.8125 Q80.5625,314.9063 81.25,315.9766 Q81.9375,317.0469 83.2813,317.0469 Q83.9063,317.0469 84.5,316.7734 Q85.0938,316.5 85.7188,315.9219 L85.7188,318.6406 Z "/><text fill="#000000" font-family="sans-serif" font-size="12" lengthAdjust="spacingAndGlyphs" textLength="76" x="103.25" y="317.1543">NodeWidget</text><line style="stroke: #A80036; stroke-width: 1.5;" x1="23" x2="227" y1="329" y2="329"/><ellipse cx="33" cy="340.9023" fill="none" rx="3" ry="3" style="stroke: #038048; stroke-width: 1.0;"/><text fill="#000000" font-family="sans-serif" font-size="11" lengthAdjust="spacingAndGlyphs" textLength="111" x="42" y="343.2104">TreeNode treeNode</text><ellipse cx="33" cy="353.707" fill="none" rx="3" ry="3" style="stroke: #038048; stroke-width: 1.0;"/><text fill="#000000" font-family="sans-serif" font-size="11" lengthAdjust="spacingAndGlyphs" textLength="83" x="42" y="356.0151">double? indent</text><ellipse cx="33" cy="366.5117" fill="none" rx="3" ry="3" style="stroke: #038048; stroke-width: 1.0;"/><text fill="#000000" font-family="sans-serif" font-size="11" lengthAdjust="spacingAndGlyphs" textLength="94" x="42" y="368.8198">double? iconSize</text><ellipse cx="33" cy="379.3164" fill="none" rx="3" ry="3" style="stroke: #038048; stroke-width: 1.0;"/><text fill="#000000" font-family="sans-serif" font-size="11" lengthAdjust="spacingAndGlyphs" textLength="115" x="42" y="381.6245">TreeController state</text><line style="stroke: #A80036; stroke-width: 1.5;" x1="23" x2="227" y1="388.2188" y2="388.2188"/><ellipse cx="33" cy="400.1211" fill="#84BE84" rx="3" ry="3" style="stroke: #038048; stroke-width: 1.0;"/><text fill="#000000" font-family="sans-serif" font-size="11" lengthAdjust="spacingAndGlyphs" textLength="180" x="42" y="402.4292">_NodeWidgetState createState()</text><!--class flutter_simple_treeview::src::node_widget.dart::_NodeWidgetState--><rect fill="#FEFECE" filter="url(#fz97jc68a26r1)" height="86.4141" id="flutter_simple_treeview::src::node_widget.dart::_NodeWidgetState" style="stroke: #A80036; stroke-width: 1.5;" width="148" x="263" y="310"/><ellipse cx="278" cy="326" fill="#ADD1B2" rx="11" ry="11" style="stroke: #A80036; stroke-width: 1.0;"/><path d="M280.9688,331.6406 Q280.3906,331.9375 279.75,332.0859 Q279.1094,332.2344 278.4063,332.2344 Q275.9063,332.2344 274.5859,330.5859 Q273.2656,328.9375 273.2656,325.8125 Q273.2656,322.6875 274.5859,321.0313 Q275.9063,319.375 278.4063,319.375 Q279.1094,319.375 279.7578,319.5313 Q280.4063,319.6875 280.9688,319.9844 L280.9688,322.7031 Q280.3438,322.125 279.75,321.8516 Q279.1563,321.5781 278.5313,321.5781 Q277.1875,321.5781 276.5,322.6484 Q275.8125,323.7188 275.8125,325.8125 Q275.8125,327.9063 276.5,328.9766 Q277.1875,330.0469 278.5313,330.0469 Q279.1563,330.0469 279.75,329.7734 Q280.3438,329.5 280.9688,328.9219 L280.9688,331.6406 Z "/><text fill="#000000" font-family="sans-serif" font-size="12" lengthAdjust="spacingAndGlyphs" textLength="116" x="292" y="330.1543">_NodeWidgetState</text><line style="stroke: #A80036; stroke-width: 1.5;" x1="264" x2="410" y1="342" y2="342"/><rect fill="none" height="6" style="stroke: #C82930; stroke-width: 1.0;" width="6" x="271" y="350.9023"/><text fill="#000000" font-family="sans-serif" font-size="11" lengthAdjust="spacingAndGlyphs" textLength="68" x="283" y="356.2104">bool _isLeaf</text><rect fill="none" height="6" style="stroke: #C82930; stroke-width: 1.0;" width="6" x="271" y="363.707"/><text fill="#000000" font-family="sans-serif" font-size="11" lengthAdjust="spacingAndGlyphs" textLength="99" x="283" y="369.0151">bool _isExpanded</text><line style="stroke: #A80036; stroke-width: 1.5;" x1="264" x2="410" y1="375.6094" y2="375.6094"/><ellipse cx="274" cy="387.5117" fill="#84BE84" rx="3" ry="3" style="stroke: #038048; stroke-width: 1.0;"/><text fill="#000000" font-family="sans-serif" font-size="11" lengthAdjust="spacingAndGlyphs" textLength="76" x="283" y="389.8198">Widget build()</text><!--class flutter_simple_treeview::src::primitives::tree_node.dart::TreeNode--><rect fill="#FEFECE" filter="url(#fz97jc68a26r1)" height="86.4141" id="flutter_simple_treeview::src::primitives::tree_node.dart::TreeNode" style="stroke: #A80036; stroke-width: 1.5;" width="174" x="274" y="43"/><ellipse cx="326.25" cy="59" fill="#ADD1B2" rx="11" ry="11" style="stroke: #A80036; stroke-width: 1.0;"/><path d="M329.2188,64.6406 Q328.6406,64.9375 328,65.0859 Q327.3594,65.2344 326.6563,65.2344 Q324.1563,65.2344 322.8359,63.5859 Q321.5156,61.9375 321.5156,58.8125 Q321.5156,55.6875 322.8359,54.0313 Q324.1563,52.375 326.6563,52.375 Q327.3594,52.375 328.0078,52.5313 Q328.6563,52.6875 329.2188,52.9844 L329.2188,55.7031 Q328.5938,55.125 328,54.8516 Q327.4063,54.5781 326.7813,54.5781 Q325.4375,54.5781 324.75,55.6484 Q324.0625,56.7188 324.0625,58.8125 Q324.0625,60.9063 324.75,61.9766 Q325.4375,63.0469 326.7813,63.0469 Q327.4063,63.0469 328,62.7734 Q328.5938,62.5 329.2188,61.9219 L329.2188,64.6406 Z "/><text fill="#000000" font-family="sans-serif" font-size="12" lengthAdjust="spacingAndGlyphs" textLength="61" x="346.75" y="63.1543">TreeNode</text><line style="stroke: #A80036; stroke-width: 1.5;" x1="275" x2="447" y1="75" y2="75"/><ellipse cx="285" cy="86.9023" fill="none" rx="3" ry="3" style="stroke: #038048; stroke-width: 1.0;"/><text fill="#000000" font-family="sans-serif" font-size="11" lengthAdjust="spacingAndGlyphs" textLength="148" x="294" y="89.2104">List&lt;TreeNode&gt;? children</text><ellipse cx="285" cy="99.707" fill="none" rx="3" ry="3" style="stroke: #038048; stroke-width: 1.0;"/><text fill="#000000" font-family="sans-serif" font-size="11" lengthAdjust="spacingAndGlyphs" textLength="83" x="294" y="102.0151">Widget content</text><ellipse cx="285" cy="112.5117" fill="none" rx="3" ry="3" style="stroke: #038048; stroke-width: 1.0;"/><text fill="#000000" font-family="sans-serif" font-size="11" lengthAdjust="spacingAndGlyphs" textLength="49" x="294" y="114.8198">Key? key</text><line style="stroke: #A80036; stroke-width: 1.5;" x1="275" x2="447" y1="121.4141" y2="121.4141"/><!--class flutter::src::foundation::key.dart::Key--><rect fill="#FEFECE" filter="url(#fz97jc68a26r1)" height="48" id="flutter::src::foundation::key.dart::Key" style="stroke: #A80036; stroke-width: 1.5;" width="53" x="855.5" y="189"/><ellipse cx="870.5" cy="205" fill="#ADD1B2" rx="11" ry="11" style="stroke: #A80036; stroke-width: 1.0;"/><path d="M873.4688,210.6406 Q872.8906,210.9375 872.25,211.0859 Q871.6094,211.2344 870.9063,211.2344 Q868.4063,211.2344 867.0859,209.5859 Q865.7656,207.9375 865.7656,204.8125 Q865.7656,201.6875 867.0859,200.0313 Q868.4063,198.375 870.9063,198.375 Q871.6094,198.375 872.2578,198.5313 Q872.9063,198.6875 873.4688,198.9844 L873.4688,201.7031 Q872.8438,201.125 872.25,200.8516 Q871.6563,200.5781 871.0313,200.5781 Q869.6875,200.5781 869,201.6484 Q868.3125,202.7188 868.3125,204.8125 Q868.3125,206.9063 869,207.9766 Q869.6875,209.0469 871.0313,209.0469 Q871.6563,209.0469 872.25,208.7734 Q872.8438,208.5 873.4688,207.9219 L873.4688,210.6406 Z "/><text fill="#000000" font-family="sans-serif" font-size="12" lengthAdjust="spacingAndGlyphs" textLength="21" x="884.5" y="209.1543">Key</text><line style="stroke: #A80036; stroke-width: 1.5;" x1="856.5" x2="907.5" y1="221" y2="221"/><line style="stroke: #A80036; stroke-width: 1.5;" x1="856.5" x2="907.5" y1="229" y2="229"/><!--class flutter::src::foundation::key.dart::ValueKey--><rect fill="#FEFECE" filter="url(#fz97jc68a26r1)" height="48" id="flutter::src::foundation::key.dart::ValueKey" style="stroke: #A80036; stroke-width: 1.5;" width="88" x="732" y="189"/><ellipse cx="747" cy="205" fill="#ADD1B2" rx="11" ry="11" style="stroke: #A80036; stroke-width: 1.0;"/><path d="M749.9688,210.6406 Q749.3906,210.9375 748.75,211.0859 Q748.1094,211.2344 747.4063,211.2344 Q744.9063,211.2344 743.5859,209.5859 Q742.2656,207.9375 742.2656,204.8125 Q742.2656,201.6875 743.5859,200.0313 Q744.9063,198.375 747.4063,198.375 Q748.1094,198.375 748.7578,198.5313 Q749.4063,198.6875 749.9688,198.9844 L749.9688,201.7031 Q749.3438,201.125 748.75,200.8516 Q748.1563,200.5781 747.5313,200.5781 Q746.1875,200.5781 745.5,201.6484 Q744.8125,202.7188 744.8125,204.8125 Q744.8125,206.9063 745.5,207.9766 Q746.1875,209.0469 747.5313,209.0469 Q748.1563,209.0469 748.75,208.7734 Q749.3438,208.5 749.9688,207.9219 L749.9688,210.6406 Z "/><text fill="#000000" font-family="sans-serif" font-size="12" lengthAdjust="spacingAndGlyphs" textLength="56" x="761" y="209.1543">ValueKey</text><line style="stroke: #A80036; stroke-width: 1.5;" x1="733" x2="819" y1="221" y2="221"/><line style="stroke: #A80036; stroke-width: 1.5;" x1="733" x2="819" y1="229" y2="229"/><!--class flutter_simple_treeview::src::primitives::key_provider.dart::_TreeNodeKey--><rect fill="#FEFECE" filter="url(#fz97jc68a26r1)" height="48" id="flutter_simple_treeview::src::primitives::key_provider.dart::_TreeNodeKey" style="stroke: #A80036; stroke-width: 1.5;" width="120" x="1047" y="329"/><ellipse cx="1062" cy="345" fill="#ADD1B2" rx="11" ry="11" style="stroke: #A80036; stroke-width: 1.0;"/><path d="M1064.9688,350.6406 Q1064.3906,350.9375 1063.75,351.0859 Q1063.1094,351.2344 1062.4063,351.2344 Q1059.9063,351.2344 1058.5859,349.5859 Q1057.2656,347.9375 1057.2656,344.8125 Q1057.2656,341.6875 1058.5859,340.0313 Q1059.9063,338.375 1062.4063,338.375 Q1063.1094,338.375 1063.7578,338.5313 Q1064.4063,338.6875 1064.9688,338.9844 L1064.9688,341.7031 Q1064.3438,341.125 1063.75,340.8516 Q1063.1563,340.5781 1062.5313,340.5781 Q1061.1875,340.5781 1060.5,341.6484 Q1059.8125,342.7188 1059.8125,344.8125 Q1059.8125,346.9063 1060.5,347.9766 Q1061.1875,349.0469 1062.5313,349.0469 Q1063.1563,349.0469 1063.75,348.7734 Q1064.3438,348.5 1064.9688,347.9219 L1064.9688,350.6406 Z "/><text fill="#000000" font-family="sans-serif" font-size="12" lengthAdjust="spacingAndGlyphs" textLength="88" x="1076" y="349.1543">_TreeNodeKey</text><line style="stroke: #A80036; stroke-width: 1.5;" x1="1048" x2="1166" y1="361" y2="361"/><line style="stroke: #A80036; stroke-width: 1.5;" x1="1048" x2="1166" y1="369" y2="369"/><!--class flutter_simple_treeview::src::primitives::key_provider.dart::KeyProvider--><rect fill="#FEFECE" filter="url(#fz97jc68a26r1)" height="86.4141" id="flutter_simple_treeview::src::primitives::key_provider.dart::KeyProvider" style="stroke: #A80036; stroke-width: 1.5;" width="119" x="892.5" y="310"/><ellipse cx="914.25" cy="326" fill="#ADD1B2" rx="11" ry="11" style="stroke: #A80036; stroke-width: 1.0;"/><path d="M917.2188,331.6406 Q916.6406,331.9375 916,332.0859 Q915.3594,332.2344 914.6563,332.2344 Q912.1563,332.2344 910.8359,330.5859 Q909.5156,328.9375 909.5156,325.8125 Q909.5156,322.6875 910.8359,321.0313 Q912.1563,319.375 914.6563,319.375 Q915.3594,319.375 916.0078,319.5313 Q916.6563,319.6875 917.2188,319.9844 L917.2188,322.7031 Q916.5938,322.125 916,321.8516 Q915.4063,321.5781 914.7813,321.5781 Q913.4375,321.5781 912.75,322.6484 Q912.0625,323.7188 912.0625,325.8125 Q912.0625,327.9063 912.75,328.9766 Q913.4375,330.0469 914.7813,330.0469 Q915.4063,330.0469 916,329.7734 Q916.5938,329.5 917.2188,328.9219 L917.2188,331.6406 Z "/><text fill="#000000" font-family="sans-serif" font-size="12" lengthAdjust="spacingAndGlyphs" textLength="72" x="929.75" y="330.1543">KeyProvider</text><line style="stroke: #A80036; stroke-width: 1.5;" x1="893.5" x2="1010.5" y1="342" y2="342"/><rect fill="none" height="6" style="stroke: #C82930; stroke-width: 1.0;" width="6" x="900.5" y="350.9023"/><text fill="#000000" font-family="sans-serif" font-size="11" lengthAdjust="spacingAndGlyphs" textLength="78" x="912.5" y="356.2104">int _nextIndex</text><rect fill="none" height="6" style="stroke: #C82930; stroke-width: 1.0;" width="6" x="900.5" y="363.707"/><text fill="#000000" font-family="sans-serif" font-size="11" lengthAdjust="spacingAndGlyphs" textLength="93" x="912.5" y="369.0151">Set&lt;Key&gt; _keys</text><line style="stroke: #A80036; stroke-width: 1.5;" x1="893.5" x2="1010.5" y1="375.6094" y2="375.6094"/><ellipse cx="903.5" cy="387.5117" fill="#84BE84" rx="3" ry="3" style="stroke: #038048; stroke-width: 1.0;"/><text fill="#000000" font-family="sans-serif" font-size="11" lengthAdjust="spacingAndGlyphs" textLength="51" x="912.5" y="389.8198">Key key()</text><!--link flutter_simple_treeview::src::tree_view.dart::TreeView to flutter_simple_treeview::src::primitives::tree_controller.dart::TreeController--><path d="M545,422.5046 C545,437.4874 545,453.4573 545,468.855 " fill="none" id="flutter_simple_treeview::src::tree_view.dart::TreeView-flutter_simple_treeview::src::primitives::tree_controller.dart::TreeController" style="stroke: #A80036; stroke-width: 1.0;"/><polygon fill="#FFFFFF" points="545,409.0673,541,415.0673,545,421.0673,549,415.0673,545,409.0673" style="stroke: #A80036; stroke-width: 1.0;"/><!--link flutter::src::widgets::framework.dart::StatefulWidget to flutter_simple_treeview::src::tree_view.dart::TreeView--><path d="M511.1498,256.2852 C515.6227,269.0648 520.5847,283.2419 525.2998,296.7138 " fill="none" id="flutter::src::widgets::framework.dart::StatefulWidget-flutter_simple_treeview::src::tree_view.dart::TreeView" style="stroke: #A80036; stroke-width: 1.0;"/><polygon fill="none" points="504.4235,258.2565,504.4234,237.0669,517.6375,253.6316,504.4235,258.2565" style="stroke: #A80036; stroke-width: 1.0;"/><!--link flutter_simple_treeview::src::tree_view.dart::_TreeViewState to flutter_simple_treeview::src::primitives::tree_controller.dart::TreeController--><path d="M709.4477,404.8568 C687.3307,424.4448 661.5937,447.2388 637.1386,468.8974 " fill="none" id="flutter_simple_treeview::src::tree_view.dart::_TreeViewState-flutter_simple_treeview::src::primitives::tree_controller.dart::TreeController" style="stroke: #A80036; stroke-width: 1.0;"/><polygon fill="#FFFFFF" points="719.3373,396.0982,712.1936,397.0818,710.354,404.0543,717.4977,403.0707,719.3373,396.0982" style="stroke: #A80036; stroke-width: 1.0;"/><!--link flutter::src::widgets::framework.dart::State to flutter_simple_treeview::src::tree_view.dart::_TreeViewState--><path d="M664.8296,251.2827 C683.1886,269.3831 705.1867,291.0714 724.145,309.7627 " fill="none" id="flutter::src::widgets::framework.dart::State-flutter_simple_treeview::src::tree_view.dart::_TreeViewState" style="stroke: #A80036; stroke-width: 1.0;"/><polygon fill="none" points="659.7382,256.0931,650.4107,237.0669,669.5673,246.1236,659.7382,256.0931" style="stroke: #A80036; stroke-width: 1.0;"/><!--link flutter_simple_treeview::src::node_widget.dart::NodeWidget to flutter_simple_treeview::src::primitives::tree_node.dart::TreeNode--><path d="M183.3968,286.9324 C226.9178,237.6947 285.1077,171.8612 322.8202,129.1949 " fill="none" id="flutter_simple_treeview::src::node_widget.dart::NodeWidget-flutter_simple_treeview::src::primitives::tree_node.dart::TreeNode" style="stroke: #A80036; stroke-width: 1.0;"/><polygon fill="#FFFFFF" points="174.6222,296.8596,181.5929,295.0131,182.5694,287.8684,175.5987,289.7149,174.6222,296.8596" style="stroke: #A80036; stroke-width: 1.0;"/><!--link flutter_simple_treeview::src::node_widget.dart::NodeWidget to flutter_simple_treeview::src::primitives::tree_controller.dart::TreeController--><path d="M239.8974,414.0076 C241.9448,415.0181 243.9803,416.0163 246,417 C314.6144,450.4178 393.4921,485.5 452.999,511.3106 " fill="none" id="flutter_simple_treeview::src::node_widget.dart::NodeWidget-flutter_simple_treeview::src::primitives::tree_controller.dart::TreeController" style="stroke: #A80036; stroke-width: 1.0;"/><polygon fill="#FFFFFF" points="228.0684,408.1037,231.6506,414.3621,238.8054,413.4626,235.2232,407.2041,228.0684,408.1037" style="stroke: #A80036; stroke-width: 1.0;"/><!--link flutter::src::widgets::framework.dart::StatefulWidget to flutter_simple_treeview::src::node_widget.dart::NodeWidget--><path d="M421.3441,243.4903 C419.5525,244.0186 417.7693,244.5231 416,245 C342.2629,264.8732 317.0996,242.1263 246,270 C228.6868,276.7874 211.4085,286.453 195.5531,296.8033 " fill="none" id="flutter::src::widgets::framework.dart::StatefulWidget-flutter_simple_treeview::src::node_widget.dart::NodeWidget" style="stroke: #A80036; stroke-width: 1.0;"/><polygon fill="none" points="419.4327,236.7491,440.6197,237.0846,423.8478,250.0347,419.4327,236.7491" style="stroke: #A80036; stroke-width: 1.0;"/><!--link flutter::src::widgets::framework.dart::State to flutter_simple_treeview::src::node_widget.dart::_NodeWidgetState--><path d="M573.7707,243.7891 C510.0085,264.484 484.2082,243.8736 430,270 C409.9204,279.6777 390.9437,295.0039 375.4329,309.8668 " fill="none" id="flutter::src::widgets::framework.dart::State-flutter_simple_treeview::src::node_widget.dart::_NodeWidgetState" style="stroke: #A80036; stroke-width: 1.0;"/><polygon fill="none" points="571.6298,237.1181,592.8168,236.7835,576.4627,250.2575,571.6298,237.1181" style="stroke: #A80036; stroke-width: 1.0;"/><!--link flutter_simple_treeview::src::primitives::tree_node.dart::TreeNode to flutter::src::widgets::framework.dart::Widget--><path d="M361,142.6928 C361,158.8535 361,175.6092 361,188.7079 " fill="none" id="flutter_simple_treeview::src::primitives::tree_node.dart::TreeNode-flutter::src::widgets::framework.dart::Widget" style="stroke: #A80036; stroke-width: 1.0;"/><polygon fill="#FFFFFF" points="361,129.351,357,135.351,361,141.351,365,135.351,361,129.351" style="stroke: #A80036; stroke-width: 1.0;"/><!--link flutter_simple_treeview::src::primitives::tree_node.dart::TreeNode to flutter::src::foundation::key.dart::Key--><path d="M461.4209,93.8736 C581.7644,104.7008 775.0765,126.929 838,162 C849.4403,168.3763 859.2922,178.9351 866.7558,188.7962 " fill="none" id="flutter_simple_treeview::src::primitives::tree_node.dart::TreeNode-flutter::src::foundation::key.dart::Key" style="stroke: #A80036; stroke-width: 1.0;"/><polygon fill="#FFFFFF" points="448.2052,92.7039,453.8292,97.2173,460.1585,93.7619,454.5345,89.2485,448.2052,92.7039" style="stroke: #A80036; stroke-width: 1.0;"/><!--link flutter::src::foundation::key.dart::ValueKey to flutter_simple_treeview::src::primitives::key_provider.dart::_TreeNodeKey--><path d="M836.4261,244.4957 C836.9515,244.6679 837.4762,244.8361 838,245 C919.705,270.5708 952.7984,230.9756 1029,270 C1055.2246,283.4301 1077.3454,309.3439 1091.2557,328.6599 " fill="none" id="flutter::src::foundation::key.dart::ValueKey-flutter_simple_treeview::src::primitives::key_provider.dart::_TreeNodeKey" style="stroke: #A80036; stroke-width: 1.0;"/><polygon fill="none" points="833.8192,250.9923,817.8619,237.0508,839.0304,237.9983,833.8192,250.9923" style="stroke: #A80036; stroke-width: 1.0;"/><!--
@startuml
set namespaceSeparator ::

class "flutter_simple_treeview::src::tree_view.dart::TreeView" {
  +List<TreeNode> nodes
  +double? indent
  +double? iconSize
  +TreeController? treeController
  +_TreeViewState createState()
}

"flutter_simple_treeview::src::tree_view.dart::TreeView" o- - "flutter_simple_treeview::src::primitives::tree_controller.dart::TreeController"
"flutter::src::widgets::framework.dart::StatefulWidget" <|- - "flutter_simple_treeview::src::tree_view.dart::TreeView"

class "flutter_simple_treeview::src::tree_view.dart::_TreeViewState" {
  -TreeController? _controller
  +void initState()
  +Widget build()
}

"flutter_simple_treeview::src::tree_view.dart::_TreeViewState" o- - "flutter_simple_treeview::src::primitives::tree_controller.dart::TreeController"
"flutter::src::widgets::framework.dart::State" <|- - "flutter_simple_treeview::src::tree_view.dart::_TreeViewState"

class "flutter_simple_treeview::src::node_widget.dart::NodeWidget" {
  +TreeNode treeNode
  +double? indent
  +double? iconSize
  +TreeController state
  +_NodeWidgetState createState()
}

"flutter_simple_treeview::src::node_widget.dart::NodeWidget" o- - "flutter_simple_treeview::src::primitives::tree_node.dart::TreeNode"
"flutter_simple_treeview::src::node_widget.dart::NodeWidget" o- - "flutter_simple_treeview::src::primitives::tree_controller.dart::TreeController"
"flutter::src::widgets::framework.dart::StatefulWidget" <|- - "flutter_simple_treeview::src::node_widget.dart::NodeWidget"

class "flutter_simple_treeview::src::node_widget.dart::_NodeWidgetState" {
  -bool _isLeaf
  -bool _isExpanded
  +Widget build()
}

"flutter::src::widgets::framework.dart::State" <|- - "flutter_simple_treeview::src::node_widget.dart::_NodeWidgetState"

class "flutter_simple_treeview::src::primitives::tree_node.dart::TreeNode" {
  +List<TreeNode>? children
  +Widget content
  +Key? key
}

"flutter_simple_treeview::src::primitives::tree_node.dart::TreeNode" o- - "flutter::src::widgets::framework.dart::Widget"
"flutter_simple_treeview::src::primitives::tree_node.dart::TreeNode" o- - "flutter::src::foundation::key.dart::Key"

class "flutter_simple_treeview::src::primitives::tree_controller.dart::TreeController" {
  -bool _allNodesExpanded
  -Map<Key, bool> _expanded
  +bool allNodesExpanded
  +bool isNodeExpanded()
  +void toggleNodeExpanded()
  +void expandAll()
  +void collapseAll()
  +void expandNode()
  +void collapseNode()
}

class "flutter_simple_treeview::src::primitives::key_provider.dart::_TreeNodeKey" {
}

"flutter::src::foundation::key.dart::ValueKey" <|- - "flutter_simple_treeview::src::primitives::key_provider.dart::_TreeNodeKey"

class "flutter_simple_treeview::src::primitives::key_provider.dart::KeyProvider" {
  -int _nextIndex
  -Set<Key> _keys
  +Key key()
}


@enduml

PlantUML version 1.2019.03(Sun Mar 10 11:04:44 UTC 2019)
(GPL source distribution)
Java Runtime: OpenJDK Runtime Environment
JVM: OpenJDK 64-Bit Server VM
Java Version: 1.8.0_162-heroku-b12
Operating System: Linux
OS Version: 4.4.0-1098-aws
Default Encoding: UTF-8
Language: en
Country: US
--></g></svg>