<?xml version="1.0" encoding="UTF-8" standalone="no"?><svg xmlns="http://www.w3.org/2000/svg" xmlns:xlink="http://www.w3.org/1999/xlink" contentScriptType="application/ecmascript" contentStyleType="text/css" height="780px" preserveAspectRatio="none" style="width:1593px;height:780px;" version="1.1" viewBox="0 0 1593 780" width="1593px" zoomAndPan="magnify"><defs><filter height="300%" id="faywzh5mw1oz2" width="300%" x="-1" y="-1"><feGaussianBlur result="blurOut" stdDeviation="2.0"/><feColorMatrix in="blurOut" result="blurOut2" type="matrix" values="0 0 0 0 0 0 0 0 0 0 0 0 0 0 0 0 0 0 .4 0"/><feOffset dx="4.0" dy="4.0" in="blurOut2" result="blurOut3"/><feBlend in="SourceGraphic" in2="blurOut3" mode="normal"/></filter></defs><g><!--cluster linked_scroll_controller::linked_scroll_controller.dart--><polygon fill="#FFFFFF" filter="url(#faywzh5mw1oz2)" points="397,124,814,124,821,146.2969,1062,146.2969,1062,768,397,768,397,124" style="stroke: #000000; stroke-width: 1.5;"/><line style="stroke: #000000; stroke-width: 1.5;" x1="397" x2="821" y1="146.2969" y2="146.2969"/><text fill="#000000" font-family="sans-serif" font-size="14" font-weight="bold" lengthAdjust="spacingAndGlyphs" textLength="411" x="401" y="138.9951">linked_scroll_controller::linked_scroll_controller.dart</text><!--cluster flutter::src::foundation::change_notifier.dart--><polygon fill="#FFFFFF" filter="url(#faywzh5mw1oz2)" points="14,456,374,456,381,478.2969,384,478.2969,384,539,14,539,14,456" style="stroke: #000000; stroke-width: 1.5;"/><line style="stroke: #000000; stroke-width: 1.5;" x1="14" x2="381" y1="478.2969" y2="478.2969"/><text fill="#000000" font-family="sans-serif" font-size="14" font-weight="bold" lengthAdjust="spacingAndGlyphs" textLength="354" x="18" y="470.9951">flutter::src::foundation::change_notifier.dart</text><!--cluster flutter::src::widgets::scroll_controller.dart--><polygon fill="#FFFFFF" filter="url(#faywzh5mw1oz2)" points="373,16,716,16,723,38.2969,726,38.2969,726,99,373,99,373,16" style="stroke: #000000; stroke-width: 1.5;"/><line style="stroke: #000000; stroke-width: 1.5;" x1="373" x2="723" y1="38.2969" y2="38.2969"/><text fill="#000000" font-family="sans-serif" font-size="14" font-weight="bold" lengthAdjust="spacingAndGlyphs" textLength="337" x="377" y="30.9951">flutter::src::widgets::scroll_controller.dart</text><!--cluster flutter::src::widgets::scroll_position_with_single_context.dart--><polygon fill="#FFFFFF" filter="url(#faywzh5mw1oz2)" points="1070,194.5,1561,194.5,1568,216.7969,1571,216.7969,1571,277.5,1070,277.5,1070,194.5" style="stroke: #000000; stroke-width: 1.5;"/><line style="stroke: #000000; stroke-width: 1.5;" x1="1070" x2="1568" y1="216.7969" y2="216.7969"/><text fill="#000000" font-family="sans-serif" font-size="14" font-weight="bold" lengthAdjust="spacingAndGlyphs" textLength="485" x="1074" y="209.4951">flutter::src::widgets::scroll_position_with_single_context.dart</text><!--cluster flutter::src::widgets::scroll_activity.dart--><polygon fill="#FFFFFF" filter="url(#faywzh5mw1oz2)" points="820,16,1142,16,1149,38.2969,1152,38.2969,1152,99,820,99,820,16" style="stroke: #000000; stroke-width: 1.5;"/><line style="stroke: #000000; stroke-width: 1.5;" x1="820" x2="1149" y1="38.2969" y2="38.2969"/><text fill="#000000" font-family="sans-serif" font-size="14" font-weight="bold" lengthAdjust="spacingAndGlyphs" textLength="316" x="824" y="30.9951">flutter::src::widgets::scroll_activity.dart</text><!--class linked_scroll_controller::linked_scroll_controller.dart::LinkedScrollControllerGroup--><rect fill="#FEFECE" filter="url(#faywzh5mw1oz2)" height="176.0469" id="linked_scroll_controller::linked_scroll_controller.dart::LinkedScrollControllerGroup" style="stroke: #A80036; stroke-width: 1.5;" width="351" x="405.5" y="419"/><ellipse cx="490.25" cy="435" fill="#ADD1B2" rx="11" ry="11" style="stroke: #A80036; stroke-width: 1.0;"/><path d="M493.2188,440.6406 Q492.6406,440.9375 492,441.0859 Q491.3594,441.2344 490.6563,441.2344 Q488.1563,441.2344 486.8359,439.5859 Q485.5156,437.9375 485.5156,434.8125 Q485.5156,431.6875 486.8359,430.0313 Q488.1563,428.375 490.6563,428.375 Q491.3594,428.375 492.0078,428.5313 Q492.6563,428.6875 493.2188,428.9844 L493.2188,431.7031 Q492.5938,431.125 492,430.8516 Q491.4063,430.5781 490.7813,430.5781 Q489.4375,430.5781 488.75,431.6484 Q488.0625,432.7188 488.0625,434.8125 Q488.0625,436.9063 488.75,437.9766 Q489.4375,439.0469 490.7813,439.0469 Q491.4063,439.0469 492,438.7734 Q492.5938,438.5 493.2188,437.9219 L493.2188,440.6406 Z "/><text fill="#000000" font-family="sans-serif" font-size="12" lengthAdjust="spacingAndGlyphs" textLength="173" x="510.75" y="439.1543">LinkedScrollControllerGroup</text><line style="stroke: #A80036; stroke-width: 1.5;" x1="406.5" x2="755.5" y1="451" y2="451"/><rect fill="none" height="6" style="stroke: #C82930; stroke-width: 1.0;" width="6" x="413.5" y="459.9023"/><text fill="#000000" font-family="sans-serif" font-size="11" lengthAdjust="spacingAndGlyphs" textLength="254" x="425.5" y="465.2104">List&lt;_LinkedScrollController&gt; _allControllers</text><rect fill="none" height="6" style="stroke: #C82930; stroke-width: 1.0;" width="6" x="413.5" y="472.707"/><text fill="#000000" font-family="sans-serif" font-size="11" lengthAdjust="spacingAndGlyphs" textLength="325" x="425.5" y="478.0151">_LinkedScrollControllerGroupOffsetNotifier _offsetNotifier</text><ellipse cx="416.5" cy="488.5117" fill="none" rx="3" ry="3" style="stroke: #038048; stroke-width: 1.0;"/><text fill="#000000" font-family="sans-serif" font-size="11" lengthAdjust="spacingAndGlyphs" textLength="75" x="425.5" y="490.8198">double offset</text><rect fill="none" height="6" style="stroke: #C82930; stroke-width: 1.0;" width="6" x="413.5" y="498.3164"/><text fill="#000000" font-family="sans-serif" font-size="11" lengthAdjust="spacingAndGlyphs" textLength="313" x="425.5" y="503.6245">Iterable&lt;_LinkedScrollController&gt; _attachedControllers</text><line style="stroke: #A80036; stroke-width: 1.5;" x1="406.5" x2="755.5" y1="510.2188" y2="510.2188"/><ellipse cx="416.5" cy="522.1211" fill="#84BE84" rx="3" ry="3" style="stroke: #038048; stroke-width: 1.0;"/><text fill="#000000" font-family="sans-serif" font-size="11" lengthAdjust="spacingAndGlyphs" textLength="162" x="425.5" y="524.4292">ScrollController addAndGet()</text><ellipse cx="416.5" cy="534.9258" fill="#84BE84" rx="3" ry="3" style="stroke: #038048; stroke-width: 1.0;"/><text fill="#000000" font-family="sans-serif" font-size="11" lengthAdjust="spacingAndGlyphs" textLength="187" x="425.5" y="537.2339">void addOffsetChangedListener()</text><ellipse cx="416.5" cy="547.7305" fill="#84BE84" rx="3" ry="3" style="stroke: #038048; stroke-width: 1.0;"/><text fill="#000000" font-family="sans-serif" font-size="11" lengthAdjust="spacingAndGlyphs" textLength="209" x="425.5" y="550.0386">void removeOffsetChangedListener()</text><ellipse cx="416.5" cy="560.5352" fill="#84BE84" rx="3" ry="3" style="stroke: #038048; stroke-width: 1.0;"/><text fill="#000000" font-family="sans-serif" font-size="11" lengthAdjust="spacingAndGlyphs" textLength="149" x="425.5" y="562.8433">Future&lt;void&gt; animateTo()</text><ellipse cx="416.5" cy="573.3398" fill="#84BE84" rx="3" ry="3" style="stroke: #038048; stroke-width: 1.0;"/><text fill="#000000" font-family="sans-serif" font-size="11" lengthAdjust="spacingAndGlyphs" textLength="77" x="425.5" y="575.6479">void jumpTo()</text><ellipse cx="416.5" cy="586.1445" fill="#84BE84" rx="3" ry="3" style="stroke: #038048; stroke-width: 1.0;"/><text fill="#000000" font-family="sans-serif" font-size="11" lengthAdjust="spacingAndGlyphs" textLength="97" x="425.5" y="588.4526">void resetScroll()</text><!--class linked_scroll_controller::linked_scroll_controller.dart::_LinkedScrollControllerGroupOffsetNotifier--><rect fill="#FEFECE" filter="url(#faywzh5mw1oz2)" height="86.4141" id="linked_scroll_controller::linked_scroll_controller.dart::_LinkedScrollControllerGroupOffsetNotifier" style="stroke: #A80036; stroke-width: 1.5;" width="293" x="434.5" y="674"/><ellipse cx="449.5" cy="690" fill="#ADD1B2" rx="11" ry="11" style="stroke: #A80036; stroke-width: 1.0;"/><path d="M452.4688,695.6406 Q451.8906,695.9375 451.25,696.0859 Q450.6094,696.2344 449.9063,696.2344 Q447.4063,696.2344 446.0859,694.5859 Q444.7656,692.9375 444.7656,689.8125 Q444.7656,686.6875 446.0859,685.0313 Q447.4063,683.375 449.9063,683.375 Q450.6094,683.375 451.2578,683.5313 Q451.9063,683.6875 452.4688,683.9844 L452.4688,686.7031 Q451.8438,686.125 451.25,685.8516 Q450.6563,685.5781 450.0313,685.5781 Q448.6875,685.5781 448,686.6484 Q447.3125,687.7188 447.3125,689.8125 Q447.3125,691.9063 448,692.9766 Q448.6875,694.0469 450.0313,694.0469 Q450.6563,694.0469 451.25,693.7734 Q451.8438,693.5 452.4688,692.9219 L452.4688,695.6406 Z "/><text fill="#000000" font-family="sans-serif" font-size="12" lengthAdjust="spacingAndGlyphs" textLength="261" x="463.5" y="694.1543">_LinkedScrollControllerGroupOffsetNotifier</text><line style="stroke: #A80036; stroke-width: 1.5;" x1="435.5" x2="726.5" y1="706" y2="706"/><ellipse cx="445.5" cy="717.9023" fill="none" rx="3" ry="3" style="stroke: #038048; stroke-width: 1.0;"/><text fill="#000000" font-family="sans-serif" font-size="11" lengthAdjust="spacingAndGlyphs" textLength="252" x="454.5" y="720.2104">LinkedScrollControllerGroup controllerGroup</text><rect fill="none" height="6" style="stroke: #C82930; stroke-width: 1.0;" width="6" x="442.5" y="727.707"/><text fill="#000000" font-family="sans-serif" font-size="11" lengthAdjust="spacingAndGlyphs" textLength="129" x="454.5" y="733.0151">double? _cachedOffset</text><line style="stroke: #A80036; stroke-width: 1.5;" x1="435.5" x2="726.5" y1="739.6094" y2="739.6094"/><ellipse cx="445.5" cy="751.5117" fill="#84BE84" rx="3" ry="3" style="stroke: #038048; stroke-width: 1.0;"/><text fill="#000000" font-family="sans-serif" font-size="11" lengthAdjust="spacingAndGlyphs" textLength="119" x="454.5" y="753.8198">void notifyListeners()</text><!--class linked_scroll_controller::linked_scroll_controller.dart::_LinkedScrollController--><rect fill="#FEFECE" filter="url(#faywzh5mw1oz2)" height="176.0469" id="linked_scroll_controller::linked_scroll_controller.dart::_LinkedScrollController" style="stroke: #A80036; stroke-width: 1.5;" width="335" x="442.5" y="157.5"/><ellipse cx="535.25" cy="173.5" fill="#ADD1B2" rx="11" ry="11" style="stroke: #A80036; stroke-width: 1.0;"/><path d="M538.2188,179.1406 Q537.6406,179.4375 537,179.5859 Q536.3594,179.7344 535.6563,179.7344 Q533.1563,179.7344 531.8359,178.0859 Q530.5156,176.4375 530.5156,173.3125 Q530.5156,170.1875 531.8359,168.5313 Q533.1563,166.875 535.6563,166.875 Q536.3594,166.875 537.0078,167.0313 Q537.6563,167.1875 538.2188,167.4844 L538.2188,170.2031 Q537.5938,169.625 537,169.3516 Q536.4063,169.0781 535.7813,169.0781 Q534.4375,169.0781 533.75,170.1484 Q533.0625,171.2188 533.0625,173.3125 Q533.0625,175.4063 533.75,176.4766 Q534.4375,177.5469 535.7813,177.5469 Q536.4063,177.5469 537,177.2734 Q537.5938,177 538.2188,176.4219 L538.2188,179.1406 Z "/><text fill="#000000" font-family="sans-serif" font-size="12" lengthAdjust="spacingAndGlyphs" textLength="141" x="555.75" y="177.6543">_LinkedScrollController</text><line style="stroke: #A80036; stroke-width: 1.5;" x1="443.5" x2="776.5" y1="189.5" y2="189.5"/><rect fill="none" height="6" style="stroke: #C82930; stroke-width: 1.0;" width="6" x="450.5" y="198.4023"/><text fill="#000000" font-family="sans-serif" font-size="11" lengthAdjust="spacingAndGlyphs" textLength="230" x="462.5" y="203.7104">LinkedScrollControllerGroup _controllers</text><ellipse cx="453.5" cy="214.207" fill="none" rx="3" ry="3" style="stroke: #038048; stroke-width: 1.0;"/><text fill="#000000" font-family="sans-serif" font-size="11" lengthAdjust="spacingAndGlyphs" textLength="139" x="462.5" y="216.5151">double initialScrollOffset</text><ellipse cx="453.5" cy="227.0117" fill="none" rx="3" ry="3" style="stroke: #038048; stroke-width: 1.0;"/><text fill="#000000" font-family="sans-serif" font-size="11" lengthAdjust="spacingAndGlyphs" textLength="168" x="462.5" y="229.3198">_LinkedScrollPosition position</text><rect fill="none" height="6" style="stroke: #C82930; stroke-width: 1.0;" width="6" x="450.5" y="236.8164"/><text fill="#000000" font-family="sans-serif" font-size="11" lengthAdjust="spacingAndGlyphs" textLength="309" x="462.5" y="242.1245">Iterable&lt;_LinkedScrollController&gt; _allPeersWithClients</text><ellipse cx="453.5" cy="252.6211" fill="none" rx="3" ry="3" style="stroke: #038048; stroke-width: 1.0;"/><text fill="#000000" font-family="sans-serif" font-size="11" lengthAdjust="spacingAndGlyphs" textLength="126" x="462.5" y="254.9292">bool canLinkWithPeers</text><line style="stroke: #A80036; stroke-width: 1.5;" x1="443.5" x2="776.5" y1="261.5234" y2="261.5234"/><ellipse cx="453.5" cy="273.4258" fill="#84BE84" rx="3" ry="3" style="stroke: #038048; stroke-width: 1.0;"/><text fill="#000000" font-family="sans-serif" font-size="11" lengthAdjust="spacingAndGlyphs" textLength="80" x="462.5" y="275.7339">void dispose()</text><ellipse cx="453.5" cy="286.2305" fill="#84BE84" rx="3" ry="3" style="stroke: #038048; stroke-width: 1.0;"/><text fill="#000000" font-family="sans-serif" font-size="11" lengthAdjust="spacingAndGlyphs" textLength="70" x="462.5" y="288.5386">void attach()</text><ellipse cx="453.5" cy="299.0352" fill="#84BE84" rx="3" ry="3" style="stroke: #038048; stroke-width: 1.0;"/><text fill="#000000" font-family="sans-serif" font-size="11" lengthAdjust="spacingAndGlyphs" textLength="244" x="462.5" y="301.3433">_LinkedScrollPosition createScrollPosition()</text><ellipse cx="453.5" cy="311.8398" fill="#84BE84" rx="3" ry="3" style="stroke: #038048; stroke-width: 1.0;"/><text fill="#000000" font-family="sans-serif" font-size="11" lengthAdjust="spacingAndGlyphs" textLength="261" x="462.5" y="314.1479">Iterable&lt;_LinkedScrollActivity&gt; linkWithPeers()</text><ellipse cx="453.5" cy="324.6445" fill="#84BE84" rx="3" ry="3" style="stroke: #038048; stroke-width: 1.0;"/><text fill="#000000" font-family="sans-serif" font-size="11" lengthAdjust="spacingAndGlyphs" textLength="205" x="462.5" y="326.9526">Iterable&lt;_LinkedScrollActivity&gt; link()</text><!--class linked_scroll_controller::linked_scroll_controller.dart::_LinkedScrollPosition--><rect fill="#FEFECE" filter="url(#faywzh5mw1oz2)" height="214.4609" id="linked_scroll_controller::linked_scroll_controller.dart::_LinkedScrollPosition" style="stroke: #A80036; stroke-width: 1.5;" width="262" x="792" y="400"/><ellipse cx="853.75" cy="416" fill="#ADD1B2" rx="11" ry="11" style="stroke: #A80036; stroke-width: 1.0;"/><path d="M856.7188,421.6406 Q856.1406,421.9375 855.5,422.0859 Q854.8594,422.2344 854.1563,422.2344 Q851.6563,422.2344 850.3359,420.5859 Q849.0156,418.9375 849.0156,415.8125 Q849.0156,412.6875 850.3359,411.0313 Q851.6563,409.375 854.1563,409.375 Q854.8594,409.375 855.5078,409.5313 Q856.1563,409.6875 856.7188,409.9844 L856.7188,412.7031 Q856.0938,412.125 855.5,411.8516 Q854.9063,411.5781 854.2813,411.5781 Q852.9375,411.5781 852.25,412.6484 Q851.5625,413.7188 851.5625,415.8125 Q851.5625,417.9063 852.25,418.9766 Q852.9375,420.0469 854.2813,420.0469 Q854.9063,420.0469 855.5,419.7734 Q856.0938,419.5 856.7188,418.9219 L856.7188,421.6406 Z "/><text fill="#000000" font-family="sans-serif" font-size="12" lengthAdjust="spacingAndGlyphs" textLength="130" x="874.25" y="420.1543">_LinkedScrollPosition</text><line style="stroke: #A80036; stroke-width: 1.5;" x1="793" x2="1053" y1="432" y2="432"/><ellipse cx="803" cy="443.9023" fill="none" rx="3" ry="3" style="stroke: #038048; stroke-width: 1.0;"/><text fill="#000000" font-family="sans-serif" font-size="11" lengthAdjust="spacingAndGlyphs" textLength="169" x="812" y="446.2104">_LinkedScrollController owner</text><rect fill="none" height="6" style="stroke: #C82930; stroke-width: 1.0;" width="6" x="800" y="453.707"/><text fill="#000000" font-family="sans-serif" font-size="11" lengthAdjust="spacingAndGlyphs" textLength="236" x="812" y="459.0151">Set&lt;_LinkedScrollActivity&gt; _peerActivities</text><line style="stroke: #A80036; stroke-width: 1.5;" x1="793" x2="1053" y1="465.6094" y2="465.6094"/><ellipse cx="803" cy="477.5117" fill="#84BE84" rx="3" ry="3" style="stroke: #038048; stroke-width: 1.0;"/><text fill="#000000" font-family="sans-serif" font-size="11" lengthAdjust="spacingAndGlyphs" textLength="149" x="812" y="479.8198">ScrollHoldController hold()</text><rect fill="#F24D5C" height="6" style="stroke: #C82930; stroke-width: 1.0;" width="6" x="800" y="487.3164"/><text fill="#000000" font-family="sans-serif" font-size="11" lengthAdjust="spacingAndGlyphs" textLength="108" x="812" y="492.6245">void _holdInternal()</text><ellipse cx="803" cy="503.1211" fill="#84BE84" rx="3" ry="3" style="stroke: #038048; stroke-width: 1.0;"/><text fill="#000000" font-family="sans-serif" font-size="11" lengthAdjust="spacingAndGlyphs" textLength="105" x="812" y="505.4292">void beginActivity()</text><ellipse cx="803" cy="515.9258" fill="#84BE84" rx="3" ry="3" style="stroke: #038048; stroke-width: 1.0;"/><text fill="#000000" font-family="sans-serif" font-size="11" lengthAdjust="spacingAndGlyphs" textLength="101" x="812" y="518.2339">double setPixels()</text><ellipse cx="803" cy="528.7305" fill="#84BE84" rx="3" ry="3" style="stroke: #038048; stroke-width: 1.0;"/><text fill="#000000" font-family="sans-serif" font-size="11" lengthAdjust="spacingAndGlyphs" textLength="144" x="812" y="531.0386">double setPixelsInternal()</text><ellipse cx="803" cy="541.5352" fill="#84BE84" rx="3" ry="3" style="stroke: #038048; stroke-width: 1.0;"/><text fill="#000000" font-family="sans-serif" font-size="11" lengthAdjust="spacingAndGlyphs" textLength="97" x="812" y="543.8433">void forcePixels()</text><ellipse cx="803" cy="554.3398" fill="#84BE84" rx="3" ry="3" style="stroke: #038048; stroke-width: 1.0;"/><text fill="#000000" font-family="sans-serif" font-size="11" lengthAdjust="spacingAndGlyphs" textLength="140" x="812" y="556.6479">void forcePixelsInternal()</text><ellipse cx="803" cy="567.1445" fill="#84BE84" rx="3" ry="3" style="stroke: #038048; stroke-width: 1.0;"/><text fill="#000000" font-family="sans-serif" font-size="11" lengthAdjust="spacingAndGlyphs" textLength="144" x="812" y="569.4526">_LinkedScrollActivity link()</text><ellipse cx="803" cy="579.9492" fill="#84BE84" rx="3" ry="3" style="stroke: #038048; stroke-width: 1.0;"/><text fill="#000000" font-family="sans-serif" font-size="11" lengthAdjust="spacingAndGlyphs" textLength="68" x="812" y="582.2573">void unlink()</text><ellipse cx="803" cy="592.7539" fill="#84BE84" rx="3" ry="3" style="stroke: #038048; stroke-width: 1.0;"/><text fill="#000000" font-family="sans-serif" font-size="11" lengthAdjust="spacingAndGlyphs" textLength="183" x="812" y="595.062">void updateUserScrollDirection()</text><ellipse cx="803" cy="605.5586" fill="#84BE84" rx="3" ry="3" style="stroke: #038048; stroke-width: 1.0;"/><text fill="#000000" font-family="sans-serif" font-size="11" lengthAdjust="spacingAndGlyphs" textLength="149" x="812" y="607.8667">void debugFillDescription()</text><!--class linked_scroll_controller::linked_scroll_controller.dart::_LinkedScrollActivity--><rect fill="#FEFECE" filter="url(#faywzh5mw1oz2)" height="188.8516" id="linked_scroll_controller::linked_scroll_controller.dart::_LinkedScrollActivity" style="stroke: #A80036; stroke-width: 1.5;" width="226" x="813" y="151"/><ellipse cx="860.25" cy="167" fill="#ADD1B2" rx="11" ry="11" style="stroke: #A80036; stroke-width: 1.0;"/><path d="M863.2188,172.6406 Q862.6406,172.9375 862,173.0859 Q861.3594,173.2344 860.6563,173.2344 Q858.1563,173.2344 856.8359,171.5859 Q855.5156,169.9375 855.5156,166.8125 Q855.5156,163.6875 856.8359,162.0313 Q858.1563,160.375 860.6563,160.375 Q861.3594,160.375 862.0078,160.5313 Q862.6563,160.6875 863.2188,160.9844 L863.2188,163.7031 Q862.5938,163.125 862,162.8516 Q861.4063,162.5781 860.7813,162.5781 Q859.4375,162.5781 858.75,163.6484 Q858.0625,164.7188 858.0625,166.8125 Q858.0625,168.9063 858.75,169.9766 Q859.4375,171.0469 860.7813,171.0469 Q861.4063,171.0469 862,170.7734 Q862.5938,170.5 863.2188,169.9219 L863.2188,172.6406 Z "/><text fill="#000000" font-family="sans-serif" font-size="12" lengthAdjust="spacingAndGlyphs" textLength="123" x="880.75" y="171.1543">_LinkedScrollActivity</text><line style="stroke: #A80036; stroke-width: 1.5;" x1="814" x2="1038" y1="183" y2="183"/><ellipse cx="824" cy="194.9023" fill="none" rx="3" ry="3" style="stroke: #038048; stroke-width: 1.0;"/><text fill="#000000" font-family="sans-serif" font-size="11" lengthAdjust="spacingAndGlyphs" textLength="200" x="833" y="197.2104">Set&lt;_LinkedScrollPosition&gt; drivers</text><ellipse cx="824" cy="207.707" fill="none" rx="3" ry="3" style="stroke: #038048; stroke-width: 1.0;"/><text fill="#000000" font-family="sans-serif" font-size="11" lengthAdjust="spacingAndGlyphs" textLength="172" x="833" y="210.0151">_LinkedScrollPosition delegate</text><ellipse cx="824" cy="220.5117" fill="none" rx="3" ry="3" style="stroke: #038048; stroke-width: 1.0;"/><text fill="#000000" font-family="sans-serif" font-size="11" lengthAdjust="spacingAndGlyphs" textLength="142" x="833" y="222.8198">bool shouldIgnorePointer</text><ellipse cx="824" cy="233.3164" fill="none" rx="3" ry="3" style="stroke: #038048; stroke-width: 1.0;"/><text fill="#000000" font-family="sans-serif" font-size="11" lengthAdjust="spacingAndGlyphs" textLength="87" x="833" y="235.6245">bool isScrolling</text><ellipse cx="824" cy="246.1211" fill="none" rx="3" ry="3" style="stroke: #038048; stroke-width: 1.0;"/><text fill="#000000" font-family="sans-serif" font-size="11" lengthAdjust="spacingAndGlyphs" textLength="84" x="833" y="248.4292">double velocity</text><line style="stroke: #A80036; stroke-width: 1.5;" x1="814" x2="1038" y1="255.0234" y2="255.0234"/><ellipse cx="824" cy="266.9258" fill="#84BE84" rx="3" ry="3" style="stroke: #038048; stroke-width: 1.0;"/><text fill="#000000" font-family="sans-serif" font-size="11" lengthAdjust="spacingAndGlyphs" textLength="54" x="833" y="269.2339">void link()</text><ellipse cx="824" cy="279.7305" fill="#84BE84" rx="3" ry="3" style="stroke: #038048; stroke-width: 1.0;"/><text fill="#000000" font-family="sans-serif" font-size="11" lengthAdjust="spacingAndGlyphs" textLength="68" x="833" y="282.0386">void unlink()</text><ellipse cx="824" cy="292.5352" fill="#84BE84" rx="3" ry="3" style="stroke: #038048; stroke-width: 1.0;"/><text fill="#000000" font-family="sans-serif" font-size="11" lengthAdjust="spacingAndGlyphs" textLength="80" x="833" y="294.8433">void moveTo()</text><ellipse cx="824" cy="305.3398" fill="#84BE84" rx="3" ry="3" style="stroke: #038048; stroke-width: 1.0;"/><text fill="#000000" font-family="sans-serif" font-size="11" lengthAdjust="spacingAndGlyphs" textLength="77" x="833" y="307.6479">void jumpTo()</text><rect fill="#F24D5C" height="6" style="stroke: #C82930; stroke-width: 1.0;" width="6" x="821" y="315.1445"/><text fill="#000000" font-family="sans-serif" font-size="11" lengthAdjust="spacingAndGlyphs" textLength="189" x="833" y="320.4526">void _updateUserScrollDirection()</text><ellipse cx="824" cy="330.9492" fill="#84BE84" rx="3" ry="3" style="stroke: #038048; stroke-width: 1.0;"/><text fill="#000000" font-family="sans-serif" font-size="11" lengthAdjust="spacingAndGlyphs" textLength="80" x="833" y="333.2573">void dispose()</text><!--class flutter::src::foundation::change_notifier.dart::ChangeNotifier--><rect fill="#FEFECE" filter="url(#faywzh5mw1oz2)" height="48" id="flutter::src::foundation::change_notifier.dart::ChangeNotifier" style="stroke: #A80036; stroke-width: 1.5;" width="125" x="245.5" y="483"/><ellipse cx="260.5" cy="499" fill="#ADD1B2" rx="11" ry="11" style="stroke: #A80036; stroke-width: 1.0;"/><path d="M263.4688,504.6406 Q262.8906,504.9375 262.25,505.0859 Q261.6094,505.2344 260.9063,505.2344 Q258.4063,505.2344 257.0859,503.5859 Q255.7656,501.9375 255.7656,498.8125 Q255.7656,495.6875 257.0859,494.0313 Q258.4063,492.375 260.9063,492.375 Q261.6094,492.375 262.2578,492.5313 Q262.9063,492.6875 263.4688,492.9844 L263.4688,495.7031 Q262.8438,495.125 262.25,494.8516 Q261.6563,494.5781 261.0313,494.5781 Q259.6875,494.5781 259,495.6484 Q258.3125,496.7188 258.3125,498.8125 Q258.3125,500.9063 259,501.9766 Q259.6875,503.0469 261.0313,503.0469 Q261.6563,503.0469 262.25,502.7734 Q262.8438,502.5 263.4688,501.9219 L263.4688,504.6406 Z "/><text fill="#000000" font-family="sans-serif" font-size="12" lengthAdjust="spacingAndGlyphs" textLength="93" x="274.5" y="503.1543">ChangeNotifier</text><line style="stroke: #A80036; stroke-width: 1.5;" x1="246.5" x2="369.5" y1="515" y2="515"/><line style="stroke: #A80036; stroke-width: 1.5;" x1="246.5" x2="369.5" y1="523" y2="523"/><!--class flutter::src::widgets::scroll_controller.dart::ScrollController--><rect fill="#FEFECE" filter="url(#faywzh5mw1oz2)" height="48" id="flutter::src::widgets::scroll_controller.dart::ScrollController" style="stroke: #A80036; stroke-width: 1.5;" width="127" x="546.5" y="43"/><ellipse cx="561.5" cy="59" fill="#ADD1B2" rx="11" ry="11" style="stroke: #A80036; stroke-width: 1.0;"/><path d="M564.4688,64.6406 Q563.8906,64.9375 563.25,65.0859 Q562.6094,65.2344 561.9063,65.2344 Q559.4063,65.2344 558.0859,63.5859 Q556.7656,61.9375 556.7656,58.8125 Q556.7656,55.6875 558.0859,54.0313 Q559.4063,52.375 561.9063,52.375 Q562.6094,52.375 563.2578,52.5313 Q563.9063,52.6875 564.4688,52.9844 L564.4688,55.7031 Q563.8438,55.125 563.25,54.8516 Q562.6563,54.5781 562.0313,54.5781 Q560.6875,54.5781 560,55.6484 Q559.3125,56.7188 559.3125,58.8125 Q559.3125,60.9063 560,61.9766 Q560.6875,63.0469 562.0313,63.0469 Q562.6563,63.0469 563.25,62.7734 Q563.8438,62.5 564.4688,61.9219 L564.4688,64.6406 Z "/><text fill="#000000" font-family="sans-serif" font-size="12" lengthAdjust="spacingAndGlyphs" textLength="95" x="575.5" y="63.1543">ScrollController</text><line style="stroke: #A80036; stroke-width: 1.5;" x1="547.5" x2="672.5" y1="75" y2="75"/><line style="stroke: #A80036; stroke-width: 1.5;" x1="547.5" x2="672.5" y1="83" y2="83"/><!--class flutter::src::widgets::scroll_position_with_single_context.dart::ScrollPositionWithSingleContext--><rect fill="#FEFECE" filter="url(#faywzh5mw1oz2)" height="48" id="flutter::src::widgets::scroll_position_with_single_context.dart::ScrollPositionWithSingleContext" style="stroke: #A80036; stroke-width: 1.5;" width="229" x="1078.5" y="221.5"/><ellipse cx="1093.5" cy="237.5" fill="#ADD1B2" rx="11" ry="11" style="stroke: #A80036; stroke-width: 1.0;"/><path d="M1096.4688,243.1406 Q1095.8906,243.4375 1095.25,243.5859 Q1094.6094,243.7344 1093.9063,243.7344 Q1091.4063,243.7344 1090.0859,242.0859 Q1088.7656,240.4375 1088.7656,237.3125 Q1088.7656,234.1875 1090.0859,232.5313 Q1091.4063,230.875 1093.9063,230.875 Q1094.6094,230.875 1095.2578,231.0313 Q1095.9063,231.1875 1096.4688,231.4844 L1096.4688,234.2031 Q1095.8438,233.625 1095.25,233.3516 Q1094.6563,233.0781 1094.0313,233.0781 Q1092.6875,233.0781 1092,234.1484 Q1091.3125,235.2188 1091.3125,237.3125 Q1091.3125,239.4063 1092,240.4766 Q1092.6875,241.5469 1094.0313,241.5469 Q1094.6563,241.5469 1095.25,241.2734 Q1095.8438,241 1096.4688,240.4219 L1096.4688,243.1406 Z "/><text fill="#000000" font-family="sans-serif" font-size="12" lengthAdjust="spacingAndGlyphs" textLength="197" x="1107.5" y="241.6543">ScrollPositionWithSingleContext</text><line style="stroke: #A80036; stroke-width: 1.5;" x1="1079.5" x2="1306.5" y1="253.5" y2="253.5"/><line style="stroke: #A80036; stroke-width: 1.5;" x1="1079.5" x2="1306.5" y1="261.5" y2="261.5"/><!--class flutter::src::widgets::scroll_activity.dart::ScrollActivity--><rect fill="#FEFECE" filter="url(#faywzh5mw1oz2)" height="48" id="flutter::src::widgets::scroll_activity.dart::ScrollActivity" style="stroke: #A80036; stroke-width: 1.5;" width="109" x="871.5" y="43"/><ellipse cx="886.5" cy="59" fill="#ADD1B2" rx="11" ry="11" style="stroke: #A80036; stroke-width: 1.0;"/><path d="M889.4688,64.6406 Q888.8906,64.9375 888.25,65.0859 Q887.6094,65.2344 886.9063,65.2344 Q884.4063,65.2344 883.0859,63.5859 Q881.7656,61.9375 881.7656,58.8125 Q881.7656,55.6875 883.0859,54.0313 Q884.4063,52.375 886.9063,52.375 Q887.6094,52.375 888.2578,52.5313 Q888.9063,52.6875 889.4688,52.9844 L889.4688,55.7031 Q888.8438,55.125 888.25,54.8516 Q887.6563,54.5781 887.0313,54.5781 Q885.6875,54.5781 885,55.6484 Q884.3125,56.7188 884.3125,58.8125 Q884.3125,60.9063 885,61.9766 Q885.6875,63.0469 887.0313,63.0469 Q887.6563,63.0469 888.25,62.7734 Q888.8438,62.5 889.4688,61.9219 L889.4688,64.6406 Z "/><text fill="#000000" font-family="sans-serif" font-size="12" lengthAdjust="spacingAndGlyphs" textLength="77" x="900.5" y="63.1543">ScrollActivity</text><line style="stroke: #A80036; stroke-width: 1.5;" x1="872.5" x2="979.5" y1="75" y2="75"/><line style="stroke: #A80036; stroke-width: 1.5;" x1="872.5" x2="979.5" y1="83" y2="83"/><!--link linked_scroll_controller::linked_scroll_controller.dart::LinkedScrollControllerGroup to linked_scroll_controller::linked_scroll_controller.dart::_LinkedScrollControllerGroupOffsetNotifier--><path d="M568.2571,608.2851 C568.1689,631.3512 568.9021,654.6566 570.4565,673.7415 " fill="none" id="linked_scroll_controller::linked_scroll_controller.dart::LinkedScrollControllerGroup-linked_scroll_controller::linked_scroll_controller.dart::_LinkedScrollControllerGroupOffsetNotifier" style="stroke: #A80036; stroke-width: 1.0;"/><polygon fill="#FFFFFF" points="568.3971,595.1461,564.3334,601.1031,568.2692,607.1454,572.3329,601.1884,568.3971,595.1461" style="stroke: #A80036; stroke-width: 1.0;"/><!--link linked_scroll_controller::linked_scroll_controller.dart::_LinkedScrollControllerGroupOffsetNotifier to linked_scroll_controller::linked_scroll_controller.dart::LinkedScrollControllerGroup--><path d="M593.1184,660.6669 C594.3487,640.528 594.7574,617.3221 594.3442,595.1461 " fill="none" id="linked_scroll_controller::linked_scroll_controller.dart::_LinkedScrollControllerGroupOffsetNotifier-linked_scroll_controller::linked_scroll_controller.dart::LinkedScrollControllerGroup" style="stroke: #A80036; stroke-width: 1.0;"/><polygon fill="#FFFFFF" points="592.1637,673.7415,596.5901,668.0488,593.0377,661.7734,588.6113,667.4661,592.1637,673.7415" style="stroke: #A80036; stroke-width: 1.0;"/><!--link flutter::src::foundation::change_notifier.dart::ChangeNotifier to linked_scroll_controller::linked_scroll_controller.dart::_LinkedScrollControllerGroupOffsetNotifier--><path d="M332.8102,547.9147 C347.2858,569.4389 367.0067,595.1875 389,614 C416.4519,637.4816 450.1416,657.7777 481.5948,673.997 " fill="none" id="flutter::src::foundation::change_notifier.dart::ChangeNotifier-linked_scroll_controller::linked_scroll_controller.dart::_LinkedScrollControllerGroupOffsetNotifier" style="stroke: #A80036; stroke-width: 1.0;"/><polygon fill="none" points="326.9058,551.6749,321.9497,531.073,338.6716,544.0876,326.9058,551.6749" style="stroke: #A80036; stroke-width: 1.0;"/><!--link linked_scroll_controller::linked_scroll_controller.dart::_LinkedScrollController to linked_scroll_controller::linked_scroll_controller.dart::LinkedScrollControllerGroup--><path d="M598.776,346.7097 C596.14,370.4789 593.3516,395.6225 590.7845,418.7707 " fill="none" id="linked_scroll_controller::linked_scroll_controller.dart::_LinkedScrollController-linked_scroll_controller::linked_scroll_controller.dart::LinkedScrollControllerGroup" style="stroke: #A80036; stroke-width: 1.0;"/><polygon fill="#FFFFFF" points="600.2224,333.6674,595.5854,339.19,598.8998,345.5943,603.5367,340.0717,600.2224,333.6674" style="stroke: #A80036; stroke-width: 1.0;"/><!--link linked_scroll_controller::linked_scroll_controller.dart::_LinkedScrollController to linked_scroll_controller::linked_scroll_controller.dart::_LinkedScrollPosition--><path d="M713.2868,342.115 C738.3986,363.5169 765.5658,386.2308 791.7718,407.7364 " fill="none" id="linked_scroll_controller::linked_scroll_controller.dart::_LinkedScrollController-linked_scroll_controller::linked_scroll_controller.dart::_LinkedScrollPosition" style="stroke: #A80036; stroke-width: 1.0;"/><polygon fill="#FFFFFF" points="703.4022,333.6674,705.3647,340.6063,712.5246,341.4636,710.5622,334.5247,703.4022,333.6674" style="stroke: #A80036; stroke-width: 1.0;"/><!--link linked_scroll_controller::linked_scroll_controller.dart::_LinkedScrollPosition to linked_scroll_controller::linked_scroll_controller.dart::_LinkedScrollController--><path d="M798.0351,391.3851 C775.0613,372.018 751.1503,352.2019 728.3736,333.6674 " fill="none" id="linked_scroll_controller::linked_scroll_controller.dart::_LinkedScrollPosition-linked_scroll_controller::linked_scroll_controller.dart::_LinkedScrollController" style="stroke: #A80036; stroke-width: 1.0;"/><polygon fill="#FFFFFF" points="808.166,399.9479,806.1657,393.0198,799.0012,392.2016,801.0015,399.1297,808.166,399.9479" style="stroke: #A80036; stroke-width: 1.0;"/><!--link flutter::src::widgets::scroll_controller.dart::ScrollController to linked_scroll_controller::linked_scroll_controller.dart::_LinkedScrollController--><path d="M610,111.1895 C610,125.2372 610,141.3039 610,157.3245 " fill="none" id="flutter::src::widgets::scroll_controller.dart::ScrollController-linked_scroll_controller::linked_scroll_controller.dart::_LinkedScrollController" style="stroke: #A80036; stroke-width: 1.0;"/><polygon fill="none" points="603.0001,111.0733,610,91.0733,617.0001,111.0733,603.0001,111.0733" style="stroke: #A80036; stroke-width: 1.0;"/><!--link flutter::src::widgets::scroll_position_with_single_context.dart::ScrollPositionWithSingleContext to linked_scroll_controller::linked_scroll_controller.dart::_LinkedScrollPosition--><path d="M1153.3947,283.8585 C1121.8469,314.4131 1076.0865,358.7329 1033.6471,399.8362 " fill="none" id="flutter::src::widgets::scroll_position_with_single_context.dart::ScrollPositionWithSingleContext-linked_scroll_controller::linked_scroll_controller.dart::_LinkedScrollPosition" style="stroke: #A80036; stroke-width: 1.0;"/><polygon fill="none" points="1148.8465,278.5185,1168.083,269.6326,1158.5865,288.5751,1148.8465,278.5185" style="stroke: #A80036; stroke-width: 1.0;"/><!--link linked_scroll_controller::linked_scroll_controller.dart::_LinkedScrollActivity to linked_scroll_controller::linked_scroll_controller.dart::_LinkedScrollPosition--><path d="M924.7605,353.5438 C924.5856,368.7895 924.4058,384.46 924.2311,399.6917 " fill="none" id="linked_scroll_controller::linked_scroll_controller.dart::_LinkedScrollActivity-linked_scroll_controller::linked_scroll_controller.dart::_LinkedScrollPosition" style="stroke: #A80036; stroke-width: 1.0;"/><polygon fill="#FFFFFF" points="924.9127,340.2772,920.8441,346.2309,924.7749,352.2764,928.8435,346.3227,924.9127,340.2772" style="stroke: #A80036; stroke-width: 1.0;"/><!--link flutter::src::widgets::scroll_activity.dart::ScrollActivity to linked_scroll_controller::linked_scroll_controller.dart::_LinkedScrollActivity--><path d="M926,111.0793 C926,123.2727 926,136.9937 926,150.8886 " fill="none" id="flutter::src::widgets::scroll_activity.dart::ScrollActivity-linked_scroll_controller::linked_scroll_controller.dart::_LinkedScrollActivity" style="stroke: #A80036; stroke-width: 1.0;"/><polygon fill="none" points="919.0001,111.0733,926,91.0733,933.0001,111.0733,919.0001,111.0733" style="stroke: #A80036; stroke-width: 1.0;"/><!--
@startuml
set namespaceSeparator ::

class "linked_scroll_controller::linked_scroll_controller.dart::LinkedScrollControllerGroup" {
  -List<_LinkedScrollController> _allControllers
  -_LinkedScrollControllerGroupOffsetNotifier _offsetNotifier
  +double offset
  -Iterable<_LinkedScrollController> _attachedControllers
  +ScrollController addAndGet()
  +void addOffsetChangedListener()
  +void removeOffsetChangedListener()
  +Future<void> animateTo()
  +void jumpTo()
  +void resetScroll()
}

"linked_scroll_controller::linked_scroll_controller.dart::LinkedScrollControllerGroup" o- - "linked_scroll_controller::linked_scroll_controller.dart::_LinkedScrollControllerGroupOffsetNotifier"

class "linked_scroll_controller::linked_scroll_controller.dart::_LinkedScrollControllerGroupOffsetNotifier" {
  +LinkedScrollControllerGroup controllerGroup
  -double? _cachedOffset
  +void notifyListeners()
}

"linked_scroll_controller::linked_scroll_controller.dart::_LinkedScrollControllerGroupOffsetNotifier" o- - "linked_scroll_controller::linked_scroll_controller.dart::LinkedScrollControllerGroup"
"flutter::src::foundation::change_notifier.dart::ChangeNotifier" <|- - "linked_scroll_controller::linked_scroll_controller.dart::_LinkedScrollControllerGroupOffsetNotifier"

class "linked_scroll_controller::linked_scroll_controller.dart::_LinkedScrollController" {
  -LinkedScrollControllerGroup _controllers
  +double initialScrollOffset
  +_LinkedScrollPosition position
  -Iterable<_LinkedScrollController> _allPeersWithClients
  +bool canLinkWithPeers
  +void dispose()
  +void attach()
  +_LinkedScrollPosition createScrollPosition()
  +Iterable<_LinkedScrollActivity> linkWithPeers()
  +Iterable<_LinkedScrollActivity> link()
}

"linked_scroll_controller::linked_scroll_controller.dart::_LinkedScrollController" o- - "linked_scroll_controller::linked_scroll_controller.dart::LinkedScrollControllerGroup"
"linked_scroll_controller::linked_scroll_controller.dart::_LinkedScrollController" o- - "linked_scroll_controller::linked_scroll_controller.dart::_LinkedScrollPosition"
"flutter::src::widgets::scroll_controller.dart::ScrollController" <|- - "linked_scroll_controller::linked_scroll_controller.dart::_LinkedScrollController"

class "linked_scroll_controller::linked_scroll_controller.dart::_LinkedScrollPosition" {
  +_LinkedScrollController owner
  -Set<_LinkedScrollActivity> _peerActivities
  +ScrollHoldController hold()
  -void _holdInternal()
  +void beginActivity()
  +double setPixels()
  +double setPixelsInternal()
  +void forcePixels()
  +void forcePixelsInternal()
  +_LinkedScrollActivity link()
  +void unlink()
  +void updateUserScrollDirection()
  +void debugFillDescription()
}

"linked_scroll_controller::linked_scroll_controller.dart::_LinkedScrollPosition" o- - "linked_scroll_controller::linked_scroll_controller.dart::_LinkedScrollController"
"flutter::src::widgets::scroll_position_with_single_context.dart::ScrollPositionWithSingleContext" <|- - "linked_scroll_controller::linked_scroll_controller.dart::_LinkedScrollPosition"

class "linked_scroll_controller::linked_scroll_controller.dart::_LinkedScrollActivity" {
  +Set<_LinkedScrollPosition> drivers
  +_LinkedScrollPosition delegate
  +bool shouldIgnorePointer
  +bool isScrolling
  +double velocity
  +void link()
  +void unlink()
  +void moveTo()
  +void jumpTo()
  -void _updateUserScrollDirection()
  +void dispose()
}

"linked_scroll_controller::linked_scroll_controller.dart::_LinkedScrollActivity" o- - "linked_scroll_controller::linked_scroll_controller.dart::_LinkedScrollPosition"
"flutter::src::widgets::scroll_activity.dart::ScrollActivity" <|- - "linked_scroll_controller::linked_scroll_controller.dart::_LinkedScrollActivity"


@enduml

PlantUML version 1.2019.03(Sun Mar 10 11:04:44 UTC 2019)
(GPL source distribution)
Java Runtime: OpenJDK Runtime Environment
JVM: OpenJDK 64-Bit Server VM
Java Version: 1.8.0_162-heroku-b12
Operating System: Linux
OS Version: 4.4.0-1098-aws
Default Encoding: UTF-8
Language: en
Country: US
--></g></svg>